<?xml version="1.0" encoding="UTF-8"?> <svg xmlns="http://www.w3.org/2000/svg" viewBox="0 0 62.00 62.00" data-guides="{&quot;vertical&quot;:[],&quot;horizontal&quot;:[]}"><path fill="#2c2b2b" stroke="none" fill-opacity="1" stroke-width="1" stroke-opacity="1" clip-rule="evenodd" fill-rule="evenodd" id="tSvg463a50b504" title="Path 3" d="M51.0901 11.4441C51.7287 11.1754 52.4274 11.0828 53.1138 11.1758C53.8002 11.2688 54.449 11.544 54.9928 11.9729C55.5366 12.4018 55.9556 12.9686 56.2062 13.6144C56.4567 14.2601 56.5297 14.9612 56.417 15.6446C54.464 27.491 52.511 39.3374 50.558 51.1838C49.9897 54.6117 46.2285 56.5778 43.0844 54.8703C40.4545 53.4417 36.5484 51.2407 33.0352 48.9441C31.2786 47.7942 25.8974 44.1132 26.5588 41.4935C27.1271 39.2538 36.1688 30.8373 41.3356 25.8334C43.3634 23.8674 42.4385 22.7334 40.0438 24.5417C34.097 29.0316 24.5489 35.8593 21.3921 37.7815C18.6072 39.4759 17.1554 39.7655 15.4194 39.4759C12.2522 38.9489 9.315 38.1327 6.9176 37.1382C3.6781 35.7947 3.8357 31.3411 6.915 30.0442C21.64 23.8442 36.365 17.6442 51.0901 11.4441Z"></path><defs></defs></svg> 